<svg xmlns="http://www.w3.org/2000/svg" width="24" height="24" viewBox="0 0 24 24" fill="none">
<mask id="mask0_12372_695" style="mask-type:alpha" maskUnits="userSpaceOnUse" x="0" y="0" width="24" height="24">
<rect width="24" height="24" fill="#D9D9D9"/>
</mask>
<g mask="url(#mask0_12372_695)">
<path d="M4.22502 15.875V11.65C4.22502 11.2666 4.36252 10.9416 4.63752 10.675C4.91252 10.4083 5.24169 10.275 5.62502 10.275C6.00836 10.275 6.33336 10.4083 6.60002 10.675C6.86669 10.9416 7.00002 11.2666 7.00002 11.65V15.9C7.00002 16.2833 6.86669 16.6083 6.60002 16.875C6.33336 17.1416 6.00836 17.275 5.62502 17.275C5.24169 17.275 4.91252 17.1375 4.63752 16.8625C4.36252 16.5875 4.22502 16.2583 4.22502 15.875ZM10.625 15.9V11.65C10.625 11.2666 10.7584 10.9416 11.025 10.675C11.2917 10.4083 11.6167 10.275 12 10.275C12.3834 10.275 12.7084 10.4083 12.975 10.675C13.2417 10.9416 13.375 11.2666 13.375 11.65V15.9C13.375 16.2833 13.2417 16.6083 12.975 16.875C12.7084 17.1416 12.3834 17.275 12 17.275C11.6167 17.275 11.2917 17.1416 11.025 16.875C10.7584 16.6083 10.625 16.2833 10.625 15.9ZM2.72502 21.65C2.29169 21.65 1.92086 21.4958 1.61252 21.1875C1.30419 20.8791 1.15002 20.5083 1.15002 20.075C1.15002 19.6416 1.30419 19.2708 1.61252 18.9625C1.92086 18.6541 2.29169 18.5 2.72502 18.5H21.275C21.7084 18.5 22.0792 18.6541 22.3875 18.9625C22.6959 19.2708 22.85 19.6416 22.85 20.075C22.85 20.5083 22.6959 20.8791 22.3875 21.1875C22.0792 21.4958 21.7084 21.65 21.275 21.65H2.72502ZM17 15.875V11.65C17 11.2666 17.1375 10.9416 17.4125 10.675C17.6875 10.4083 18.0167 10.275 18.4 10.275C18.7834 10.275 19.1084 10.4083 19.375 10.675C19.6417 10.9416 19.775 11.2666 19.775 11.65V15.9C19.775 16.2833 19.6417 16.6083 19.375 16.875C19.1084 17.1416 18.7834 17.275 18.4 17.275C18.0167 17.275 17.6875 17.1375 17.4125 16.8625C17.1375 16.5875 17 16.2583 17 15.875ZM21.175 9.02495H2.65002C2.23336 9.02495 1.87919 8.87912 1.58752 8.58745C1.29586 8.29578 1.15002 7.94162 1.15002 7.52495V6.57495C1.15002 6.29162 1.22502 6.02912 1.37502 5.78745C1.52502 5.54578 1.72502 5.35828 1.97502 5.22495L10.6 0.924951C11.0334 0.691618 11.5 0.574951 12 0.574951C12.5 0.574951 12.9667 0.691618 13.4 0.924951L21.925 5.17495C22.2084 5.30828 22.4334 5.51245 22.6 5.78745C22.7667 6.06245 22.85 6.36662 22.85 6.69995V7.32495C22.85 7.79162 22.6875 8.19162 22.3625 8.52495C22.0375 8.85828 21.6417 9.02495 21.175 9.02495Z" fill="var(--nys-icon-color, currentcolor)"/>
</g>
</svg>