<svg xmlns="http://www.w3.org/2000/svg" width="24" height="24" viewBox="0 0 24 24" fill="none">
<mask id="mask0_12372_423" style="mask-type:alpha" maskUnits="userSpaceOnUse" x="0" y="0" width="24" height="24">
<rect width="24" height="24" fill="#D9D9D9"/>
</mask>
<g mask="url(#mask0_12372_423)">
<path d="M11.5 20C10.9667 20 10.4708 19.8667 10.0125 19.6C9.55417 19.3333 9.18333 18.9667 8.9 18.5C8.71667 18.1667 8.7125 17.8333 8.8875 17.5C9.0625 17.1667 9.33333 17 9.7 17C9.91667 17 10.1083 17.0667 10.275 17.2C10.4417 17.3333 10.5917 17.4833 10.725 17.65C10.8083 17.7667 10.9208 17.8542 11.0625 17.9125C11.2042 17.9708 11.35 18 11.5 18C11.7833 18 12.0208 17.9042 12.2125 17.7125C12.4042 17.5208 12.5 17.2833 12.5 17C12.5 16.7167 12.4042 16.4792 12.2125 16.2875C12.0208 16.0958 11.7833 16 11.5 16H3C2.71667 16 2.47917 15.9042 2.2875 15.7125C2.09583 15.5208 2 15.2833 2 15C2 14.7167 2.09583 14.4792 2.2875 14.2875C2.47917 14.0958 2.71667 14 3 14H11.5C12.3333 14 13.0417 14.2917 13.625 14.875C14.2083 15.4583 14.5 16.1667 14.5 17C14.5 17.8333 14.2083 18.5417 13.625 19.125C13.0417 19.7083 12.3333 20 11.5 20ZM3 10C2.71667 10 2.47917 9.90417 2.2875 9.7125C2.09583 9.52083 2 9.28333 2 9C2 8.71667 2.09583 8.47917 2.2875 8.2875C2.47917 8.09583 2.71667 8 3 8H15.5C15.9167 8 16.2708 7.85417 16.5625 7.5625C16.8542 7.27083 17 6.91667 17 6.5C17 6.08333 16.8542 5.72917 16.5625 5.4375C16.2708 5.14583 15.9167 5 15.5 5C15.2333 5 14.9833 5.0625 14.75 5.1875C14.5167 5.3125 14.3333 5.49167 14.2 5.725C14.0833 5.925 13.9417 6.10417 13.775 6.2625C13.6083 6.42083 13.4083 6.5 13.175 6.5C12.8417 6.5 12.5708 6.375 12.3625 6.125C12.1542 5.875 12.1 5.60833 12.2 5.325C12.4333 4.625 12.8542 4.0625 13.4625 3.6375C14.0708 3.2125 14.75 3 15.5 3C16.4667 3 17.2917 3.34167 17.975 4.025C18.6583 4.70833 19 5.53333 19 6.5C19 7.46667 18.6583 8.29167 17.975 8.975C17.2917 9.65833 16.4667 10 15.5 10H3ZM19.95 17.7C19.6167 17.85 19.2917 17.8292 18.975 17.6375C18.6583 17.4458 18.5 17.1667 18.5 16.8C18.5 16.5667 18.5792 16.3708 18.7375 16.2125C18.8958 16.0542 19.075 15.9167 19.275 15.8C19.5083 15.6667 19.6875 15.4833 19.8125 15.25C19.9375 15.0167 20 14.7667 20 14.5C20 14.0833 19.8542 13.7292 19.5625 13.4375C19.2708 13.1458 18.9167 13 18.5 13H3C2.71667 13 2.47917 12.9042 2.2875 12.7125C2.09583 12.5208 2 12.2833 2 12C2 11.7167 2.09583 11.4792 2.2875 11.2875C2.47917 11.0958 2.71667 11 3 11H18.5C19.4667 11 20.2917 11.3417 20.975 12.025C21.6583 12.7083 22 13.5333 22 14.5C22 15.2 21.8167 15.8375 21.45 16.4125C21.0833 16.9875 20.5833 17.4167 19.95 17.7Z" fill="var(--nys-icon-color, currentcolor)"/>
</g>
</svg>