<svg xmlns="http://www.w3.org/2000/svg" width="24" height="24" viewBox="0 0 24 24" fill="none">
<mask id="mask0_12372_549" style="mask-type:alpha" maskUnits="userSpaceOnUse" x="0" y="0" width="24" height="24">
<rect width="24" height="24" fill="#D9D9D9"/>
</mask>
<g mask="url(#mask0_12372_549)">
<path d="M11.9242 13.3033L14.8242 16.2033C15.0075 16.3867 15.2409 16.4783 15.5242 16.4783C15.8075 16.4783 16.0409 16.3867 16.2242 16.2033C16.4075 16.02 16.4992 15.7867 16.4992 15.5033C16.4992 15.22 16.4075 14.9867 16.2242 14.8033L13.3242 11.9033L16.2242 9.00332C16.4075 8.81999 16.4992 8.58665 16.4992 8.30332C16.4992 8.01999 16.4075 7.78665 16.2242 7.60332C16.0409 7.41999 15.8075 7.32832 15.5242 7.32832C15.2409 7.32832 15.0075 7.41999 14.8242 7.60332L11.9242 10.5033L9.02419 7.60332C8.84086 7.41999 8.60753 7.32832 8.32419 7.32832C8.04086 7.32832 7.80753 7.41999 7.62419 7.60332C7.44086 7.78665 7.34919 8.01999 7.34919 8.30332C7.34919 8.58665 7.44086 8.81999 7.62419 9.00332L10.5242 11.9033L7.62419 14.8033C7.44086 14.9867 7.34919 15.22 7.34919 15.5033C7.34919 15.7867 7.44086 16.02 7.62419 16.2033C7.80753 16.3867 8.04086 16.4783 8.32419 16.4783C8.60753 16.4783 8.84086 16.3867 9.02419 16.2033L11.9242 13.3033ZM11.9242 21.9033C10.5409 21.9033 9.24086 21.6408 8.02419 21.1158C6.80753 20.5908 5.74919 19.8783 4.84919 18.9783C3.94919 18.0783 3.23669 17.02 2.71169 15.8033C2.18669 14.5867 1.92419 13.2867 1.92419 11.9033C1.92419 10.52 2.18669 9.21999 2.71169 8.00332C3.23669 6.78665 3.94919 5.72832 4.84919 4.82832C5.74919 3.92832 6.80753 3.21582 8.02419 2.69082C9.24086 2.16582 10.5409 1.90332 11.9242 1.90332C13.3075 1.90332 14.6075 2.16582 15.8242 2.69082C17.0409 3.21582 18.0992 3.92832 18.9992 4.82832C19.8992 5.72832 20.6117 6.78665 21.1367 8.00332C21.6617 9.21999 21.9242 10.52 21.9242 11.9033C21.9242 13.2867 21.6617 14.5867 21.1367 15.8033C20.6117 17.02 19.8992 18.0783 18.9992 18.9783C18.0992 19.8783 17.0409 20.5908 15.8242 21.1158C14.6075 21.6408 13.3075 21.9033 11.9242 21.9033Z" fill="var(--nys-icon-color, currentcolor)"/>
</g>
</svg>