<svg xmlns="http://www.w3.org/2000/svg" width="24" height="24" viewBox="0 0 24 24" fill="none">
<mask id="mask0_12372_376" style="mask-type:alpha" maskUnits="userSpaceOnUse" x="0" y="0" width="24" height="24">
<rect width="24" height="24" fill="#D9D9D9"/>
</mask>
<g mask="url(#mask0_12372_376)">
<path d="M9.54995 12.0001L16.9 19.3501C17.15 19.6001 17.2708 19.8918 17.2625 20.2251C17.2541 20.5584 17.125 20.8501 16.875 21.1001C16.625 21.3501 16.3333 21.4751 16 21.4751C15.6666 21.4751 15.375 21.3501 15.125 21.1001L7.42495 13.4251C7.22495 13.2251 7.07495 13.0001 6.97495 12.7501C6.87495 12.5001 6.82495 12.2501 6.82495 12.0001C6.82495 11.7501 6.87495 11.5001 6.97495 11.2501C7.07495 11.0001 7.22495 10.7751 7.42495 10.5751L15.125 2.87511C15.375 2.62511 15.6708 2.50428 16.0125 2.51261C16.3541 2.52094 16.65 2.65011 16.9 2.90011C17.15 3.15011 17.275 3.44178 17.275 3.77511C17.275 4.10844 17.15 4.40011 16.9 4.65011L9.54995 12.0001Z" fill="var(--nys-icon-color, currentcolor)"/>
</g>
</svg>