<svg xmlns="http://www.w3.org/2000/svg" width="24" height="24" viewBox="0 0 24 24" fill="none">
<mask id="mask0_12372_435" style="mask-type:alpha" maskUnits="userSpaceOnUse" x="0" y="0" width="24" height="24">
<rect width="24" height="24" fill="#D9D9D9"/>
</mask>
<g mask="url(#mask0_12372_435)">
<path d="M12 9.82485L4.65002 17.1749C4.40002 17.4249 4.10836 17.5457 3.77502 17.5374C3.44169 17.529 3.15002 17.3999 2.90002 17.1499C2.65002 16.8999 2.52502 16.6082 2.52502 16.2749C2.52502 15.9415 2.65002 15.6499 2.90002 15.3999L10.575 7.69985C10.775 7.49985 11 7.34985 11.25 7.24985C11.5 7.14985 11.75 7.09985 12 7.09985C12.25 7.09985 12.5 7.14985 12.75 7.24985C13 7.34985 13.225 7.49985 13.425 7.69985L21.125 15.3999C21.375 15.6499 21.4959 15.9457 21.4875 16.2874C21.4792 16.629 21.35 16.9249 21.1 17.1749C20.85 17.4249 20.5584 17.5499 20.225 17.5499C19.8917 17.5499 19.6 17.4249 19.35 17.1749L12 9.82485Z" fill="var(--nys-icon-color, currentcolor)"/>
</g>
</svg>