<svg xmlns="http://www.w3.org/2000/svg" width="24" height="24" viewBox="0 0 24 24" fill="none">
<mask id="mask0_12372_190" style="mask-type:alpha" maskUnits="userSpaceOnUse" x="0" y="0" width="24" height="24">
<rect width="24" height="24" fill="#D9D9D9"/>
</mask>
<g mask="url(#mask0_12372_190)">
<path d="M12 14.725L19.35 7.375C19.6 7.125 19.8917 7.00417 20.225 7.0125C20.5583 7.02083 20.85 7.15 21.1 7.4C21.35 7.65 21.475 7.94167 21.475 8.275C21.475 8.60833 21.35 8.9 21.1 9.15L13.425 16.85C13.225 17.05 13 17.2 12.75 17.3C12.5 17.4 12.25 17.45 12 17.45C11.75 17.45 11.5 17.4 11.25 17.3C11 17.2 10.775 17.05 10.575 16.85L2.87499 9.15C2.62499 8.9 2.50415 8.60417 2.51249 8.2625C2.52082 7.92083 2.64999 7.625 2.89999 7.375C3.14999 7.125 3.44165 7 3.77499 7C4.10832 7 4.39999 7.125 4.64999 7.375L12 14.725Z" fill="var(--nys-icon-color, currentcolor)"/>
</g>
</svg>