<svg xmlns="http://www.w3.org/2000/svg" width="24" height="24" viewBox="0 0 24 24" fill="none">
<mask id="mask0_12372_247" style="mask-type:alpha" maskUnits="userSpaceOnUse" x="0" y="0" width="24" height="24">
<rect width="24" height="24" fill="#D9D9D9"/>
</mask>
<g mask="url(#mask0_12372_247)">
<path d="M14.7238 12.4865L7.37494 19.8353C7.12498 20.0853 7.00417 20.3769 7.0125 20.7102C7.02083 21.0435 7.14998 21.3351 7.39994 21.5851C7.6499 21.835 7.94152 21.96 8.2748 21.96C8.60809 21.96 8.89971 21.835 9.14967 21.5851L16.8485 13.9112C17.0485 13.7113 17.1984 13.4863 17.2984 13.2363C17.3984 12.9864 17.4484 12.7364 17.4484 12.4865C17.4484 12.2365 17.3984 11.9865 17.2984 11.7366C17.1984 11.4866 17.0485 11.2616 16.8485 11.0617L9.14967 3.36285C8.89971 3.11289 8.60392 2.99207 8.26231 3.0004C7.92069 3.00874 7.6249 3.13788 7.37494 3.38784C7.12498 3.63781 7 3.92943 7 4.26271C7 4.59599 7.12498 4.88761 7.37494 5.13758L14.7238 12.4865Z" fill="var(--nys-icon-color, currentcolor)"/>
</g>
</svg>