<svg xmlns="http://www.w3.org/2000/svg" width="24" height="24" viewBox="0 0 24 24" fill="none">
<mask id="mask0_12372_778" style="mask-type:alpha" maskUnits="userSpaceOnUse" x="0" y="0" width="24" height="24">
<rect width="24" height="24" fill="#D9D9D9"/>
</mask>
<g mask="url(#mask0_12372_778)">
<path d="M11.25 22C11.05 22 10.875 21.925 10.725 21.775C10.575 21.625 10.5 21.45 10.5 21.25C10.5 21.05 10.575 20.875 10.725 20.725C10.875 20.575 11.05 20.5 11.25 20.5V18.95C10.55 18.8667 9.89167 18.7 9.275 18.45C8.65833 18.2 8.1 17.8667 7.6 17.45L6.525 18.55C6.675 18.7 6.75 18.875 6.75 19.075C6.75 19.275 6.675 19.45 6.525 19.6C6.375 19.75 6.2 19.825 6 19.825C5.8 19.825 5.625 19.75 5.475 19.6L4.4 18.55C4.25 18.4 4.175 18.2208 4.175 18.0125C4.175 17.8042 4.25 17.625 4.4 17.475C4.55 17.325 4.725 17.2542 4.925 17.2625C5.125 17.2708 5.3 17.3417 5.45 17.475L6.55 16.375C6.13333 15.8583 5.8 15.3 5.55 14.7C5.3 14.1 5.13333 13.45 5.05 12.75H3.5C3.5 12.95 3.425 13.125 3.275 13.275C3.125 13.425 2.95 13.5 2.75 13.5C2.55 13.5 2.375 13.425 2.225 13.275C2.075 13.125 2 12.95 2 12.75V11.25C2 11.05 2.075 10.875 2.225 10.725C2.375 10.575 2.55 10.5 2.75 10.5C2.95 10.5 3.125 10.575 3.275 10.725C3.425 10.875 3.5 11.05 3.5 11.25H5.05C5.13333 10.55 5.30417 9.9 5.5625 9.3C5.82083 8.7 6.15 8.14167 6.55 7.625L5.45 6.525C5.3 6.65833 5.125 6.72917 4.925 6.7375C4.725 6.74583 4.55 6.675 4.4 6.525C4.25 6.375 4.175 6.19583 4.175 5.9875C4.175 5.77917 4.25 5.6 4.4 5.45L5.45 4.4C5.6 4.25 5.77917 4.175 5.9875 4.175C6.19583 4.175 6.375 4.25 6.525 4.4C6.675 4.55 6.75 4.72917 6.75 4.9375C6.75 5.14583 6.675 5.325 6.525 5.475L7.6 6.55C8.11667 6.13333 8.675 5.8 9.275 5.55C9.875 5.3 10.525 5.13333 11.225 5.05V3.5C11.025 3.5 10.8542 3.425 10.7125 3.275C10.5708 3.125 10.5 2.95 10.5 2.75C10.5 2.55 10.575 2.375 10.725 2.225C10.875 2.075 11.05 2 11.25 2H12.75C12.95 2 13.125 2.075 13.275 2.225C13.425 2.375 13.5 2.55 13.5 2.75C13.5 2.95 13.425 3.125 13.275 3.275C13.125 3.425 12.95 3.5 12.75 3.5V5.05C13.45 5.13333 14.1 5.3 14.7 5.55C15.3 5.8 15.8583 6.13333 16.375 6.55L17.475 5.45C17.325 5.3 17.25 5.125 17.25 4.925C17.25 4.725 17.325 4.55 17.475 4.4C17.625 4.25 17.8042 4.175 18.0125 4.175C18.2208 4.175 18.4 4.25 18.55 4.4L19.6 5.475C19.75 5.625 19.825 5.8 19.825 6C19.825 6.2 19.75 6.375 19.6 6.525C19.45 6.675 19.2708 6.75 19.0625 6.75C18.8542 6.75 18.675 6.675 18.525 6.525L17.45 7.6C17.8667 8.11667 18.2 8.67917 18.45 9.2875C18.7 9.89583 18.8667 10.55 18.95 11.25H20.5C20.5 11.05 20.575 10.875 20.725 10.725C20.875 10.575 21.05 10.5 21.25 10.5C21.45 10.5 21.625 10.575 21.775 10.725C21.925 10.875 22 11.05 22 11.25V12.75C22 12.95 21.925 13.125 21.775 13.275C21.625 13.425 21.45 13.5 21.25 13.5C21.05 13.5 20.875 13.425 20.725 13.275C20.575 13.125 20.5 12.95 20.5 12.75H18.95C18.8667 13.45 18.7 14.1042 18.45 14.7125C18.2 15.3208 17.8667 15.8833 17.45 16.4L18.525 17.475C18.675 17.325 18.8542 17.25 19.0625 17.25C19.2708 17.25 19.45 17.325 19.6 17.475C19.75 17.625 19.825 17.8042 19.825 18.0125C19.825 18.2208 19.75 18.4 19.6 18.55L18.55 19.6C18.4 19.75 18.2208 19.825 18.0125 19.825C17.8042 19.825 17.625 19.75 17.475 19.6C17.325 19.45 17.2542 19.275 17.2625 19.075C17.2708 18.875 17.3417 18.7 17.475 18.55L16.375 17.45C15.8583 17.8667 15.3 18.2042 14.7 18.4625C14.1 18.7208 13.45 18.8917 12.75 18.975V20.5C12.95 20.5 13.125 20.575 13.275 20.725C13.425 20.875 13.5 21.05 13.5 21.25C13.5 21.45 13.425 21.625 13.275 21.775C13.125 21.925 12.95 22 12.75 22H11.25ZM12 17C13.3833 17 14.5625 16.5125 15.5375 15.5375C16.5125 14.5625 17 13.3833 17 12C17 10.6167 16.5125 9.4375 15.5375 8.4625C14.5625 7.4875 13.3833 7 12 7C10.6167 7 9.4375 7.4875 8.4625 8.4625C7.4875 9.4375 7 10.6167 7 12C7 13.3833 7.4875 14.5625 8.4625 15.5375C9.4375 16.5125 10.6167 17 12 17ZM10.25 16C10.5333 16 10.7708 15.9042 10.9625 15.7125C11.1542 15.5208 11.25 15.2833 11.25 15C11.25 14.7167 11.1542 14.4792 10.9625 14.2875C10.7708 14.0958 10.5333 14 10.25 14C9.96667 14 9.72917 14.0958 9.5375 14.2875C9.34583 14.4792 9.25 14.7167 9.25 15C9.25 15.2833 9.34583 15.5208 9.5375 15.7125C9.72917 15.9042 9.96667 16 10.25 16ZM13.75 16C14.0333 16 14.2708 15.9042 14.4625 15.7125C14.6542 15.5208 14.75 15.2833 14.75 15C14.75 14.7167 14.6542 14.4792 14.4625 14.2875C14.2708 14.0958 14.0333 14 13.75 14C13.4667 14 13.2292 14.0958 13.0375 14.2875C12.8458 14.4792 12.75 14.7167 12.75 15C12.75 15.2833 12.8458 15.5208 13.0375 15.7125C13.2292 15.9042 13.4667 16 13.75 16ZM8.5 13C8.78333 13 9.02083 12.9042 9.2125 12.7125C9.40417 12.5208 9.5 12.2833 9.5 12C9.5 11.7167 9.40417 11.4792 9.2125 11.2875C9.02083 11.0958 8.78333 11 8.5 11C8.21667 11 7.97917 11.0958 7.7875 11.2875C7.59583 11.4792 7.5 11.7167 7.5 12C7.5 12.2833 7.59583 12.5208 7.7875 12.7125C7.97917 12.9042 8.21667 13 8.5 13ZM12 13C12.2833 13 12.5208 12.9042 12.7125 12.7125C12.9042 12.5208 13 12.2833 13 12C13 11.7167 12.9042 11.4792 12.7125 11.2875C12.5208 11.0958 12.2833 11 12 11C11.7167 11 11.4792 11.0958 11.2875 11.2875C11.0958 11.4792 11 11.7167 11 12C11 12.2833 11.0958 12.5208 11.2875 12.7125C11.4792 12.9042 11.7167 13 12 13ZM15.5 13C15.7833 13 16.0208 12.9042 16.2125 12.7125C16.4042 12.5208 16.5 12.2833 16.5 12C16.5 11.7167 16.4042 11.4792 16.2125 11.2875C16.0208 11.0958 15.7833 11 15.5 11C15.2167 11 14.9792 11.0958 14.7875 11.2875C14.5958 11.4792 14.5 11.7167 14.5 12C14.5 12.2833 14.5958 12.5208 14.7875 12.7125C14.9792 12.9042 15.2167 13 15.5 13ZM10.25 10C10.5333 10 10.7708 9.90417 10.9625 9.7125C11.1542 9.52083 11.25 9.28333 11.25 9C11.25 8.71667 11.1542 8.47917 10.9625 8.2875C10.7708 8.09583 10.5333 8 10.25 8C9.96667 8 9.72917 8.09583 9.5375 8.2875C9.34583 8.47917 9.25 8.71667 9.25 9C9.25 9.28333 9.34583 9.52083 9.5375 9.7125C9.72917 9.90417 9.96667 10 10.25 10ZM13.75 10C14.0333 10 14.2708 9.90417 14.4625 9.7125C14.6542 9.52083 14.75 9.28333 14.75 9C14.75 8.71667 14.6542 8.47917 14.4625 8.2875C14.2708 8.09583 14.0333 8 13.75 8C13.4667 8 13.2292 8.09583 13.0375 8.2875C12.8458 8.47917 12.75 8.71667 12.75 9C12.75 9.28333 12.8458 9.52083 13.0375 9.7125C13.2292 9.90417 13.4667 10 13.75 10Z" fill="var(--nys-icon-color, currentcolor)"/>
</g>
</svg>