<svg xmlns="http://www.w3.org/2000/svg" width="24" height="24" viewBox="0 0 24 24" fill="none">
<mask id="mask0_12372_634" style="mask-type:alpha" maskUnits="userSpaceOnUse" x="0" y="0" width="24" height="24">
<rect width="24" height="24" fill="#D9D9D9"/>
</mask>
<g mask="url(#mask0_12372_634)">
<path d="M9.54999 13.15L18 4.70002C18.2 4.50002 18.4375 4.40002 18.7125 4.40002C18.9875 4.40002 19.225 4.50002 19.425 4.70002C19.625 4.90002 19.725 5.13752 19.725 5.41252C19.725 5.68752 19.625 5.92502 19.425 6.12502L10.25 15.3C10.05 15.5 9.81665 15.6 9.54999 15.6C9.28332 15.6 9.04999 15.5 8.84999 15.3L4.57499 11.025C4.37499 10.825 4.27915 10.5875 4.28749 10.3125C4.29582 10.0375 4.39999 9.80002 4.59999 9.60002C4.79999 9.40002 5.03749 9.30002 5.31249 9.30002C5.58749 9.30002 5.82499 9.40002 6.02499 9.60002L9.54999 13.15ZM5.99999 20C5.71665 20 5.47915 19.9042 5.28749 19.7125C5.09582 19.5209 4.99999 19.2834 4.99999 19C4.99999 18.7167 5.09582 18.4792 5.28749 18.2875C5.47915 18.0959 5.71665 18 5.99999 18H18C18.2833 18 18.5208 18.0959 18.7125 18.2875C18.9042 18.4792 19 18.7167 19 19C19 19.2834 18.9042 19.5209 18.7125 19.7125C18.5208 19.9042 18.2833 20 18 20H12H5.99999Z" fill="var(--nys-icon-color, currentcolor)"/>
</g>
</svg>