<svg xmlns="http://www.w3.org/2000/svg" width="24" height="24" viewBox="0 0 24 24" fill="none">
<mask id="mask0_12372_416" style="mask-type:alpha" maskUnits="userSpaceOnUse" x="0" y="0" width="24" height="24">
<rect width="24" height="24" fill="#D9D9D9"/>
</mask>
<g mask="url(#mask0_12372_416)">
<path d="M12 22.0251C11.7333 22.0251 11.4791 21.9751 11.2375 21.8751C10.9958 21.7751 10.775 21.6334 10.575 21.4501L2.54998 13.4251C2.36664 13.2251 2.22498 13.0043 2.12498 12.7626C2.02498 12.5209 1.97498 12.2668 1.97498 12.0001C1.97498 11.7334 2.02498 11.4751 2.12498 11.2251C2.22498 10.9751 2.36664 10.7584 2.54998 10.5751L10.575 2.5501C10.775 2.3501 10.9958 2.20426 11.2375 2.1126C11.4791 2.02093 11.7333 1.9751 12 1.9751C12.2666 1.9751 12.525 2.02093 12.775 2.1126C13.025 2.20426 13.2416 2.3501 13.425 2.5501L21.45 10.5751C21.65 10.7584 21.7958 10.9751 21.8875 11.2251C21.9791 11.4751 22.025 11.7334 22.025 12.0001C22.025 12.2668 21.9791 12.5209 21.8875 12.7626C21.7958 13.0043 21.65 13.2251 21.45 13.4251L13.425 21.4501C13.2416 21.6334 13.025 21.7751 12.775 21.8751C12.525 21.9751 12.2666 22.0251 12 22.0251ZM12 20.0251L20.025 12.0001L12 3.9751L3.97498 12.0001L12 20.0251ZM12 13.0001C12.2833 13.0001 12.5208 12.9043 12.7125 12.7126C12.9041 12.5209 13 12.2834 13 12.0001V8.0001C13 7.71676 12.9041 7.47926 12.7125 7.2876C12.5208 7.09593 12.2833 7.0001 12 7.0001C11.7166 7.0001 11.4791 7.09593 11.2875 7.2876C11.0958 7.47926 11 7.71676 11 8.0001V12.0001C11 12.2834 11.0958 12.5209 11.2875 12.7126C11.4791 12.9043 11.7166 13.0001 12 13.0001ZM12 16.0001C12.2833 16.0001 12.5208 15.9043 12.7125 15.7126C12.9041 15.5209 13 15.2834 13 15.0001C13 14.7168 12.9041 14.4793 12.7125 14.2876C12.5208 14.0959 12.2833 14.0001 12 14.0001C11.7166 14.0001 11.4791 14.0959 11.2875 14.2876C11.0958 14.4793 11 14.7168 11 15.0001C11 15.2834 11.0958 15.5209 11.2875 15.7126C11.4791 15.9043 11.7166 16.0001 12 16.0001Z" fill="var(--nys-icon-color, currentcolor)"/>
</g>
</svg>