<svg xmlns="http://www.w3.org/2000/svg" width="24" height="24" viewBox="0 0 24 24" fill="none">
<mask id="mask0_14209_585" style="mask-type:alpha" maskUnits="userSpaceOnUse" x="0" y="0" width="24" height="24">
<rect width="24" height="24" fill="#D9D9D9"/>
</mask>
<g mask="url(#mask0_14209_585)">
<path d="M11 17.175V6.82505L10.1 7.72505C9.91665 7.90838 9.68749 8.00005 9.41249 8.00005C9.13749 8.00005 8.89999 7.90005 8.69999 7.70005C8.51665 7.51672 8.42499 7.28338 8.42499 7.00005C8.42499 6.71672 8.51665 6.48338 8.69999 6.30005L11.3 3.70005C11.4 3.60005 11.5083 3.52922 11.625 3.48755C11.7417 3.44588 11.8667 3.42505 12 3.42505C12.1333 3.42505 12.2583 3.44588 12.375 3.48755C12.4917 3.52922 12.6 3.60005 12.7 3.70005L15.3 6.30005C15.4833 6.48338 15.575 6.71255 15.575 6.98755C15.575 7.26255 15.4833 7.50005 15.3 7.70005C15.1 7.90005 14.8625 8.00005 14.5875 8.00005C14.3125 8.00005 14.075 7.90005 13.875 7.70005L13 6.82505V17.175L13.9 16.275C14.0833 16.0917 14.3125 16 14.5875 16C14.8625 16 15.1 16.1 15.3 16.3C15.4833 16.4834 15.575 16.7167 15.575 17C15.575 17.2834 15.4833 17.5167 15.3 17.7L12.7 20.3C12.6 20.4 12.4917 20.4709 12.375 20.5125C12.2583 20.5542 12.1333 20.575 12 20.575C11.8667 20.575 11.7417 20.5542 11.625 20.5125C11.5083 20.4709 11.4 20.4 11.3 20.3L8.69999 17.7C8.51665 17.5167 8.42082 17.2875 8.41249 17.0125C8.40415 16.7375 8.49999 16.5 8.69999 16.3C8.88332 16.1167 9.11665 16.025 9.39999 16.025C9.68332 16.025 9.91665 16.1167 10.1 16.3L11 17.175Z" fill="var(--nys-icon-color, currentcolor)"/>
</g>
</svg>