<svg xmlns="http://www.w3.org/2000/svg" width="24" height="24" viewBox="0 0 24 24" fill="none">
<mask id="mask0_12372_563" style="mask-type:alpha" maskUnits="userSpaceOnUse" x="0" y="0" width="24" height="24">
<rect width="24" height="24" fill="#D9D9D9"/>
</mask>
<g mask="url(#mask0_12372_563)">
<path d="M12 22.8499C10.5167 22.8499 9.11669 22.5624 7.80002 21.9874C6.48336 21.4124 5.33336 20.6332 4.35002 19.6499C3.36669 18.6666 2.58752 17.5166 2.01252 16.1999C1.43752 14.8832 1.15002 13.4832 1.15002 11.9999C1.15002 10.5166 1.43752 9.11657 2.01252 7.7999C2.58752 6.48324 3.36669 5.33324 4.35002 4.3499C5.33336 3.36657 6.48336 2.5874 7.80002 2.0124C9.11669 1.4374 10.5167 1.1499 12 1.1499C13.4834 1.1499 14.8834 1.4374 16.2 2.0124C17.5167 2.5874 18.6667 3.36657 19.65 4.3499C20.6334 5.33324 21.4125 6.48324 21.9875 7.7999C22.5625 9.11657 22.85 10.5166 22.85 11.9999C22.85 13.4832 22.5625 14.8832 21.9875 16.1999C21.4125 17.5166 20.6334 18.6666 19.65 19.6499C18.6667 20.6332 17.5167 21.4124 16.2 21.9874C14.8834 22.5624 13.4834 22.8499 12 22.8499ZM11.95 19.6749C12.3167 19.1082 12.6584 18.5041 12.975 17.8624C13.2917 17.2207 13.55 16.5499 13.75 15.8499H10.225C10.425 16.5499 10.6709 17.2207 10.9625 17.8624C11.2542 18.5041 11.5834 19.1082 11.95 19.6749ZM9.47502 19.2749C9.14169 18.7582 8.87919 18.2041 8.68752 17.6124C8.49586 17.0207 8.32502 16.4332 8.17502 15.8499H5.37502C5.80836 16.6499 6.37502 17.3499 7.07502 17.9499C7.77502 18.5499 8.57502 18.9916 9.47502 19.2749ZM14.45 19.2749C15.35 18.9916 16.1584 18.5499 16.875 17.9499C17.5917 17.3499 18.1667 16.6499 18.6 15.8499H15.8C15.65 16.4332 15.4709 17.0207 15.2625 17.6124C15.0542 18.2041 14.7834 18.7582 14.45 19.2749ZM4.55002 13.9249H7.77502C7.72502 13.5916 7.68752 13.2707 7.66252 12.9624C7.63752 12.6541 7.62502 12.3332 7.62502 11.9999C7.62502 11.6499 7.63752 11.3249 7.66252 11.0249C7.68752 10.7249 7.72502 10.4082 7.77502 10.0749H4.55002C4.46669 10.3916 4.40419 10.7041 4.36252 11.0124C4.32086 11.3207 4.30002 11.6499 4.30002 11.9999C4.30002 12.3332 4.32086 12.6582 4.36252 12.9749C4.40419 13.2916 4.46669 13.6082 4.55002 13.9249ZM9.77502 13.9249H14.2C14.25 13.5916 14.2792 13.2707 14.2875 12.9624C14.2959 12.6541 14.3 12.3332 14.3 11.9999C14.3 11.6499 14.2959 11.3249 14.2875 11.0249C14.2792 10.7249 14.25 10.4082 14.2 10.0749H9.77502C9.72502 10.4082 9.68752 10.7249 9.66252 11.0249C9.63752 11.3249 9.62502 11.6499 9.62502 11.9999C9.62502 12.3332 9.63752 12.6541 9.66252 12.9624C9.68752 13.2707 9.72502 13.5916 9.77502 13.9249ZM16.2 13.9249H19.4C19.4834 13.6082 19.5459 13.2916 19.5875 12.9749C19.6292 12.6582 19.65 12.3332 19.65 11.9999C19.65 11.6499 19.6292 11.3207 19.5875 11.0124C19.5459 10.7041 19.4834 10.3916 19.4 10.0749H16.2C16.2334 10.4082 16.2584 10.7249 16.275 11.0249C16.2917 11.3249 16.3 11.6499 16.3 11.9999C16.3 12.3332 16.2917 12.6541 16.275 12.9624C16.2584 13.2707 16.2334 13.5916 16.2 13.9249ZM15.8 8.1249H18.6C18.1667 7.3249 17.5917 6.62907 16.875 6.0374C16.1584 5.44574 15.35 5.00824 14.45 4.7249C14.7834 5.24157 15.0542 5.79157 15.2625 6.3749C15.4709 6.95824 15.65 7.54157 15.8 8.1249ZM10.225 8.1249H13.75C13.5667 7.4249 13.3167 6.75824 13 6.1249C12.6834 5.49157 12.3334 4.89157 11.95 4.3249C11.5834 4.89157 11.2542 5.49157 10.9625 6.1249C10.6709 6.75824 10.425 7.4249 10.225 8.1249ZM5.37502 8.1249H8.17502C8.32502 7.54157 8.49586 6.95824 8.68752 6.3749C8.87919 5.79157 9.14169 5.24157 9.47502 4.7249C8.57502 5.00824 7.77502 5.44574 7.07502 6.0374C6.37502 6.62907 5.80836 7.3249 5.37502 8.1249Z" fill="var(--nys-icon-color, currentcolor)"/>
</g>
</svg>