<svg xmlns="http://www.w3.org/2000/svg" width="24" height="24" viewBox="0 0 24 24" fill="none">
<mask id="mask0_12372_621" style="mask-type:alpha" maskUnits="userSpaceOnUse" x="0" y="0" width="24" height="24">
<rect width="24" height="24" fill="#D9D9D9"/>
</mask>
<g mask="url(#mask0_12372_621)">
<path d="M6.30002 22.7751C5.43369 22.7751 4.69211 22.4667 4.07527 21.8498C3.45844 21.2328 3.15002 20.4913 3.15002 19.6251V10.2251C3.15002 9.35893 3.45844 8.61735 4.07527 8.00035C4.69211 7.38351 5.43369 7.0751 6.30002 7.0751H6.62502V5.8001C6.62502 4.28343 7.14586 2.99593 8.18752 1.9376C9.22919 0.879264 10.5 0.350098 12 0.350098C13.5 0.350098 14.7709 0.879264 15.8125 1.9376C16.8542 2.99593 17.375 4.28343 17.375 5.8001V7.0751H17.7C18.5662 7.0751 19.3078 7.38351 19.9248 8.00035C20.5416 8.61735 20.85 9.35893 20.85 10.2251V19.6251C20.85 20.4913 20.5416 21.2328 19.9248 21.8498C19.3078 22.4667 18.5662 22.7751 17.7 22.7751H6.30002ZM12 16.9251C12.55 16.9251 13.0209 16.7293 13.4125 16.3376C13.8042 15.9459 14 15.4751 14 14.9251C14 14.3751 13.8042 13.9043 13.4125 13.5126C13.0209 13.1209 12.55 12.9251 12 12.9251C11.45 12.9251 10.9792 13.1209 10.5875 13.5126C10.1959 13.9043 10 14.3751 10 14.9251C10 15.4751 10.1959 15.9459 10.5875 16.3376C10.9792 16.7293 11.45 16.9251 12 16.9251ZM9.77502 7.0751H14.225V5.8001C14.225 5.16126 14.0125 4.61818 13.5875 4.17085C13.1625 3.72368 12.6334 3.5001 12 3.5001C11.3667 3.5001 10.8375 3.72368 10.4125 4.17085C9.98752 4.61818 9.77502 5.16126 9.77502 5.8001V7.0751Z" fill="var(--nys-icon-color, currentcolor)"/>
</g>
</svg>