<svg xmlns="http://www.w3.org/2000/svg" width="24" height="24" viewBox="0 0 24 24" fill="none">
<mask id="mask0_8703_592" style="mask-type:alpha" maskUnits="userSpaceOnUse" x="0" y="0" width="24" height="24">
<rect width="24" height="24" fill="#D9D9D9"/>
</mask>
<g mask="url(#mask0_8703_592)">
<path d="M12.6885 11.9189C13.0794 11.9258 13.4486 11.9685 13.791 12.0469C13.7832 12.134 13.7735 12.2225 13.7617 12.3115C13.697 12.7932 13.5053 13.4354 12.9629 13.7637C12.5851 13.992 12.0197 14.0489 11.5566 13.9033C11.3229 13.8298 11.0137 13.673 10.8672 13.3447C10.6962 12.962 10.8025 12.5488 11.1377 12.292C11.466 12.0406 11.9426 11.918 12.5928 11.918C12.6241 11.918 12.6561 11.918 12.6885 11.9189Z" fill="var(--nys-icon-color, currentcolor)"/>
<path fill-rule="evenodd" clip-rule="evenodd" d="M12 1.73926C17.5141 1.73926 22 6.22519 22 11.7393C21.9998 17.2532 17.514 21.7393 12 21.7393C6.48604 21.7393 2.00017 17.2532 2 11.7393C2 6.22519 6.48594 1.73926 12 1.73926ZM11.8076 5.15039C10.4347 5.2205 9.30138 5.60456 8.43945 6.29199C7.32998 7.17703 6.78999 8.51263 6.53223 9.47754C6.0476 11.2917 6.18684 13.3229 6.91602 15.0508C7.57804 16.6203 8.82441 17.7118 10.4248 18.125C10.9349 18.2568 11.5227 18.3389 12.1387 18.3389C13.3215 18.3389 14.6081 18.0365 15.6455 17.2051C16.5957 16.4435 17.1204 15.4692 17.1621 14.3867C17.2042 13.2995 16.8238 12.3987 16.0625 11.7812C15.7563 11.5334 15.4109 11.3248 15.0342 11.1592C15.0013 10.6574 14.8983 10.1062 14.6572 9.625C14.2368 8.78705 13.3903 8.24879 12.3916 8.18457C11.3066 8.11449 10.2369 8.61512 9.66797 9.45898L10.6943 10.1504C11.0222 9.66385 11.6583 9.37631 12.3125 9.41895C12.8754 9.4553 13.3274 9.73236 13.5518 10.1797C13.635 10.3457 13.6986 10.5482 13.7422 10.7764C13.412 10.7196 13.0671 10.688 12.709 10.6816C11.7223 10.666 10.9595 10.8697 10.3848 11.3096C9.59047 11.9177 9.33024 12.9382 9.73633 13.8486C9.99698 14.4336 10.5115 14.8727 11.1855 15.084C11.9916 15.3368 12.9179 15.2368 13.6025 14.8232C14.341 14.3769 14.8295 13.5622 14.9805 12.5264C15.0866 12.5929 15.1873 12.6649 15.2822 12.7422C15.7355 13.1092 15.9522 13.6469 15.9258 14.3389C15.8978 15.0621 15.5433 15.7012 14.8721 16.2393C13.8655 17.0459 12.2408 17.3154 10.7334 16.9268C9.51525 16.6126 8.5643 15.7748 8.05566 14.5693C7.43137 13.0899 7.31198 11.3508 7.72754 9.79688C8.02402 8.68694 8.55085 7.78607 9.21094 7.25977C9.86663 6.73688 10.7616 6.4421 11.8711 6.38574C14.2878 6.26097 16.0368 7.49129 16.5469 9.6709L17.752 9.3877C17.1039 6.6202 14.8261 4.99652 11.8076 5.15039Z" fill="var(--nys-icon-color, currentcolor)"/>
</g>
</svg>