<svg xmlns="http://www.w3.org/2000/svg" width="24" height="24" viewBox="0 0 24 24" fill="none">
<mask id="mask0_12372_698" style="mask-type:alpha" maskUnits="userSpaceOnUse" x="0" y="0" width="24" height="24">
<rect width="24" height="24" fill="#D9D9D9"/>
</mask>
<g mask="url(#mask0_12372_698)">
<path d="M20.4375 2H3.5625C2.69922 2 2 2.69922 2 3.5625V20.4375C2 21.3008 2.69922 22 3.5625 22H20.4375C21.3008 22 22 21.3008 22 20.4375V3.5625C22 2.69922 21.3008 2 20.4375 2ZM9.20313 14.2031C7.98828 14.2031 7 13.2148 7 12C7 10.7852 7.98438 9.79688 9.20313 9.79688C10.4219 9.79688 11.4063 10.7852 11.4063 12C11.4063 13.2148 10.4219 14.2031 9.20313 14.2031ZM14.7969 14.2031C13.5781 14.2031 12.5938 13.2148 12.5938 12C12.5938 10.7852 13.5781 9.79688 14.7969 9.79688C16.0117 9.79688 17 10.7852 17 12C17 13.2148 16.0156 14.2031 14.7969 14.2031Z" fill="var(--nys-icon-color, currentcolor)"/>
</g>
</svg>