<svg xmlns="http://www.w3.org/2000/svg" width="24" height="24" viewBox="0 0 24 24" fill="none">
<mask id="mask0_12372_645" style="mask-type:alpha" maskUnits="userSpaceOnUse" x="0" y="0" width="24" height="24">
<rect width="24" height="24" fill="#D9D9D9"/>
</mask>
<g mask="url(#mask0_12372_645)">
<path d="M2.9661 12.6702C2.92334 12.6702 2.88837 12.7054 2.88284 12.7539L2.68627 14.6152L2.88284 16.4351C2.88837 16.4837 2.92334 16.5191 2.9661 16.5191C3.00823 16.5191 3.04239 16.4843 3.04914 16.4353L3.27292 14.615L3.04914 12.7537C3.04239 12.7043 3.00823 12.6702 2.9661 12.6702Z" fill="var(--nys-icon-color, currentcolor)"/>
<path d="M2.22664 13.3833C2.18512 13.3833 2.15198 13.4163 2.14646 13.4644L2 14.6152L2.14646 15.7464C2.15178 15.7943 2.18491 15.8274 2.22664 15.8274C2.26714 15.8274 2.30008 15.7943 2.30662 15.7469L2.47988 14.6152L2.30662 13.4634C2.30008 13.4163 2.26714 13.3833 2.22664 13.3833Z" fill="var(--nys-icon-color, currentcolor)"/>
<path d="M3.75178 12.3052C3.699 12.3052 3.65687 12.348 3.65155 12.4069L3.46479 14.6152L3.65155 16.7427C3.65687 16.8018 3.699 16.8444 3.75178 16.8444C3.80353 16.8444 3.84567 16.8018 3.8518 16.7429L4.06372 14.615L3.8518 12.4067C3.84567 12.348 3.80353 12.3052 3.75178 12.3052Z" fill="var(--nys-icon-color, currentcolor)"/>
<path d="M4.544 12.2272C4.48182 12.2272 4.4313 12.2785 4.42639 12.3468L4.25006 14.6158L4.42639 16.8105C4.4313 16.8783 4.48182 16.9298 4.544 16.9298C4.60516 16.9298 4.65548 16.8783 4.66121 16.8105L4.86147 14.6158L4.66121 12.3463C4.65548 12.2785 4.60516 12.2272 4.544 12.2272Z" fill="var(--nys-icon-color, currentcolor)"/>
<path d="M5.47655 12.5102C5.47164 12.4328 5.41355 12.3737 5.34237 12.3737C5.27016 12.3737 5.21248 12.4326 5.20798 12.5108L5.04147 14.6156L5.20798 16.8287C5.21248 16.9065 5.27037 16.9657 5.34237 16.9657C5.41376 16.9657 5.47164 16.9067 5.47655 16.8289L5.66535 14.6156L5.47655 12.5102Z" fill="var(--nys-icon-color, currentcolor)"/>
<path d="M6.14748 11.037C6.06648 11.037 6.0002 11.1053 5.99611 11.1924L5.83984 14.6167L5.99611 16.8296C6.00041 16.9156 6.06668 16.9841 6.14748 16.9841C6.22767 16.9841 6.29394 16.9159 6.29885 16.8289V16.8298L6.47558 14.6169L6.29885 11.1924C6.29374 11.1053 6.22746 11.037 6.14748 11.037Z" fill="var(--nys-icon-color, currentcolor)"/>
<path d="M6.94625 10.2483C6.85564 10.2483 6.78179 10.3242 6.7777 10.4211C6.7777 10.4215 6.63145 14.6285 6.63145 14.6285L6.77791 16.8277C6.782 16.9241 6.85564 17 6.94625 17C7.03626 17 7.11071 16.9241 7.1146 16.8273V16.8285L7.28008 14.6285L7.1146 10.4211C7.11071 10.3242 7.03626 10.2483 6.94625 10.2483Z" fill="var(--nys-icon-color, currentcolor)"/>
<path d="M7.77673 9.86804C7.6763 9.86804 7.59468 9.95198 7.5912 10.0588L7.45518 14.6177L7.5912 16.7942C7.59489 16.9002 7.6763 16.9839 7.77673 16.9839C7.87655 16.9839 7.95817 16.9002 7.96226 16.7935V16.7948L8.11588 14.6179L7.96226 10.0588C7.95796 9.95198 7.87655 9.86804 7.77673 9.86804Z" fill="var(--nys-icon-color, currentcolor)"/>
<path d="M8.80337 9.90556C8.7999 9.78855 8.71092 9.69677 8.60107 9.69677C8.49041 9.69677 8.40143 9.78877 8.39836 9.90556L8.27236 14.6177L8.39857 16.7806C8.40164 16.8964 8.49041 16.9879 8.60107 16.9879C8.71092 16.9879 8.8001 16.8964 8.80337 16.78L8.94533 14.6184L8.80337 9.90556Z" fill="var(--nys-icon-color, currentcolor)"/>
<path d="M9.43176 9.8C9.31107 9.8 9.21473 9.89941 9.21186 10.0264L9.09609 14.6186L9.21227 16.7605C9.21493 16.8862 9.31107 16.986 9.43176 16.986C9.55162 16.986 9.64797 16.886 9.65124 16.7592V16.7609L9.78174 14.6182L9.65124 10.0257C9.64797 9.89899 9.55162 9.8 9.43176 9.8Z" fill="var(--nys-icon-color, currentcolor)"/>
<path d="M10.269 9.94986C10.1389 9.94986 10.0346 10.0573 10.0321 10.1943L9.92636 14.6186L10.0321 16.7478C10.0346 16.8834 10.1389 16.9905 10.269 16.9905C10.3989 16.9905 10.503 16.8834 10.5054 16.7463V16.748L10.6241 14.6192L10.5054 10.1945C10.503 10.0573 10.3989 9.94986 10.269 9.94986Z" fill="var(--nys-icon-color, currentcolor)"/>
<path d="M11.2529 9.13676C11.2128 9.10857 11.1643 9.09204 11.1126 9.09204C11.0622 9.09204 11.0154 9.10794 10.9759 9.13464C10.9066 9.18149 10.8601 9.26225 10.8589 9.35424L10.8581 9.40384L10.7628 14.6177C10.7628 14.6207 10.8589 16.734 10.8589 16.734C10.8589 16.7374 10.8593 16.7397 10.8595 16.7429C10.8624 16.8018 10.8839 16.8561 10.9184 16.8991C10.9653 16.957 11.035 16.9943 11.1126 16.9943C11.1815 16.9943 11.2443 16.9648 11.2901 16.9173C11.3361 16.8701 11.3652 16.8048 11.3664 16.7323L11.4734 14.619L11.3666 9.35403C11.365 9.26352 11.32 9.18382 11.2529 9.13676Z" fill="var(--nys-icon-color, currentcolor)"/>
<path d="M12.0903 8.63759C12.0502 8.61215 12.0028 8.59732 11.9526 8.59732C11.888 8.59732 11.8285 8.62148 11.7816 8.66133C11.7215 8.71284 11.6826 8.79041 11.6814 8.87732L11.6808 8.90615L11.5703 14.6199L11.6814 16.7039C11.6837 16.8559 11.805 16.9818 11.9526 16.9818C12.0997 16.9818 12.221 16.8559 12.2231 16.702V16.7045L12.3437 14.6201L12.2235 8.8769C12.222 8.77537 12.1684 8.68655 12.0903 8.63759Z" fill="var(--nys-icon-color, currentcolor)"/>
<path d="M19.5399 11.9014C19.2032 11.9014 18.8812 11.9722 18.5887 12.0992C18.3925 9.80212 16.5336 8 14.2659 8C13.7108 8 13.1701 8.11319 12.6923 8.30459C12.5068 8.3792 12.4577 8.45551 12.4558 8.60431V16.6946C12.4577 16.8504 12.5743 16.9718 12.7213 16.9869C12.7277 16.9877 19.5403 16.9869 19.5403 16.9869C20.8989 16.9869 22 15.8584 22 14.4503C21.9998 13.0426 20.8987 11.9014 19.5399 11.9014Z" fill="var(--nys-icon-color, currentcolor)"/>
</g>
</svg>