<svg xmlns="http://www.w3.org/2000/svg" width="24" height="24" viewBox="0 0 24 24" fill="none">
<mask id="mask0_12372_532" style="mask-type:alpha" maskUnits="userSpaceOnUse" x="0" y="0" width="24" height="24">
<rect width="24" height="24" fill="#D9D9D9"/>
</mask>
<g mask="url(#mask0_12372_532)">
<path d="M6.1202 2.50833L17.0372 8.79667L14.6972 11.1408L6.1202 2.50833ZM3.85845 2L13.8795 12L3.85928 22C3.34937 21.7742 3 21.2717 3 20.6875C3 20.6683 3 20.6492 3.00083 20.6308V20.6333V3.3675C3 3.35167 3 3.3325 3 3.31333C3 2.72917 3.34937 2.22667 3.85013 2.00417L3.85928 2.00083L3.85845 2ZM20.4302 10.8283C20.7746 11.0842 20.995 11.4908 20.995 11.9483C20.995 11.9667 20.995 11.9842 20.9942 12.0025V12C20.9975 12.0358 21 12.0783 21 12.1208C21 12.5508 20.792 12.9325 20.471 13.1692L20.4676 13.1717L18.1277 14.4992L15.5939 12L18.1285 9.46083L20.4302 10.8283ZM6.1202 21.4917L14.698 12.8592L17.038 15.2033L6.1202 21.4917Z" fill="var(--nys-icon-color, currentcolor)"/>
</g>
</svg>