<svg xmlns="http://www.w3.org/2000/svg" width="24" height="24" viewBox="0 0 24 24" fill="none">
<mask id="mask0_12372_332" style="mask-type:alpha" maskUnits="userSpaceOnUse" x="0" y="0" width="24" height="24">
<rect width="24" height="24" fill="#D9D9D9"/>
</mask>
<g mask="url(#mask0_12372_332)">
<path d="M12.0367 2C6.49365 2 2 6.49365 2 12.0367C2 16.7436 5.24066 20.6932 9.61226 21.778V15.104H7.54269V12.0367H9.61226V10.7151C9.61226 7.29899 11.1583 5.7156 14.5122 5.7156C15.1481 5.7156 16.2453 5.84046 16.6942 5.96491V8.74509C16.4573 8.7202 16.0458 8.70775 15.5347 8.70775C13.8891 8.70775 13.2532 9.33123 13.2532 10.952V12.0367H16.5316L15.9683 15.104H13.2532V22C18.223 21.3998 22.0739 17.1683 22.0739 12.0367C22.0735 6.49365 17.5798 2 12.0367 2Z" fill="var(--nys-icon-color, currentcolor)"/>
</g>
</svg>