<svg xmlns="http://www.w3.org/2000/svg" width="24" height="24" viewBox="0 0 24 24" fill="none">
<mask id="mask0_12372_723" style="mask-type:alpha" maskUnits="userSpaceOnUse" x="0" y="0" width="24" height="24">
<rect width="24" height="24" fill="#D9D9D9"/>
</mask>
<g mask="url(#mask0_12372_723)">
<path d="M2 8.79688V12.6172C4.49219 12.6172 6.85156 13.6016 8.61719 15.3672C10.3828 17.1328 11.3594 19.4922 11.3594 21.9922V22H15.1953C15.1953 18.3594 13.7109 15.0703 11.3203 12.6719C8.9375 10.2812 5.64062 8.80469 2 8.79688Z" fill="var(--nys-icon-color, currentcolor)"/>
<path d="M4.65625 16.6797C3.92188 16.6797 3.26562 16.9766 2.78125 17.4609C2.29688 17.9453 2 18.6016 2 19.3359C2 20.0625 2.29688 20.7188 2.78125 21.2031C3.26562 21.6797 3.92188 21.9766 4.65625 21.9766C5.39062 21.9766 6.04688 21.6875 6.53125 21.2031C7.01562 20.7188 7.3125 20.0625 7.3125 19.3359C7.3125 18.6016 7.01562 17.9453 6.53125 17.4609C6.04688 16.9766 5.39062 16.6797 4.65625 16.6797Z" fill="var(--nys-icon-color, currentcolor)"/>
<path d="M16.1328 7.86719C12.5156 4.24219 7.52344 2 2.00781 2V5.82031C10.9219 5.82812 18.1641 13.0859 18.1719 22H22C22 16.4844 19.7578 11.4922 16.1328 7.86719Z" fill="var(--nys-icon-color, currentcolor)"/>
</g>
</svg>