<svg xmlns="http://www.w3.org/2000/svg" width="24" height="24" viewBox="0 0 24 24" fill="none">
<mask id="mask0_12372_631" style="mask-type:alpha" maskUnits="userSpaceOnUse" x="0" y="0" width="24" height="24">
<rect width="24" height="24" fill="#D9D9D9"/>
</mask>
<g mask="url(#mask0_12372_631)">
<path d="M21.8881 4.69862C21.5362 3.22947 19.8797 2.81423 18.2069 3.07121C17.3489 3.20497 14.4525 4.49916 13.4656 7.60025C15.2117 7.46356 16.1279 7.72713 15.9598 9.67303C15.8886 10.4885 15.4838 11.3805 15.0286 12.2362C14.5054 13.2241 13.5212 15.1601 12.2329 13.7655C11.0727 12.5073 11.1617 10.1053 10.8975 8.5037C10.7477 7.60315 10.5914 6.48589 10.3004 5.56221C10.0519 4.76626 9.47709 3.80956 8.77407 3.59995C8.01998 3.37796 7.08804 3.72783 6.54143 4.05518C4.83909 5.06578 3.56386 6.45811 2.10226 7.65849C1.91782 7.84616 2.02704 8.00379 2.08913 8.14342C2.29904 8.47202 2.38014 8.67144 2.78041 8.73002C3.81954 8.88433 4.8077 7.74937 5.4963 8.93241C5.9175 9.65239 6.0489 10.4421 6.31772 11.2177C6.67544 12.2568 6.95332 13.3843 7.2476 14.5768C7.74663 16.592 8.35542 19.6046 10.0787 20.3458C10.9563 20.7212 12.276 20.218 12.9437 19.8167C14.7553 18.7305 16.2286 17.2052 17.375 15.5542C20.3584 11.2609 21.7887 6.94699 21.9442 6.12531C22.0548 5.52978 21.9823 5.0383 21.8881 4.69862Z" fill="var(--nys-icon-color, currentcolor)"/>
</g>
</svg>