<svg xmlns="http://www.w3.org/2000/svg" width="24" height="24" viewBox="0 0 24 24" fill="none">
<mask id="mask0_12372_686" style="mask-type:alpha" maskUnits="userSpaceOnUse" x="0" y="0" width="24" height="24">
<rect width="24" height="24" fill="#D9D9D9"/>
</mask>
<g mask="url(#mask0_12372_686)">
<path d="M20.581 16.7331C17.4839 15.2334 16.9903 12.9179 16.9683 12.7462C16.9417 12.5381 16.9116 12.3746 17.141 12.163C17.3623 11.9585 18.3439 11.3508 18.6162 11.1606C19.0664 10.8457 19.2647 10.5314 19.1185 10.145C19.0163 9.87763 18.7675 9.77694 18.5053 9.77694C18.4227 9.77719 18.3402 9.78645 18.2596 9.80454C17.7649 9.91188 17.2846 10.1598 17.0066 10.2267C16.9732 10.2354 16.9389 10.24 16.9044 10.2405C16.7562 10.2405 16.7 10.1746 16.7143 9.99622C16.7491 9.45543 16.8226 8.39991 16.7373 7.41391C16.6203 6.05733 16.1829 5.38517 15.6642 4.79071C15.4133 4.50242 14.2483 3.26392 11.9999 3.26392C9.75152 3.26392 8.58799 4.50242 8.33862 4.78713C7.81843 5.38159 7.38153 6.05375 7.26554 7.41033C7.1802 8.39633 7.25685 9.45134 7.28853 9.99264C7.29875 10.1623 7.24663 10.237 7.09844 10.237C7.06395 10.2364 7.02965 10.2317 6.99624 10.2232C6.71877 10.1562 6.23844 9.9083 5.7438 9.80096C5.66311 9.78287 5.5807 9.77361 5.49801 9.77336C5.23485 9.77336 4.98702 9.87559 4.88482 10.1414C4.73867 10.5278 4.93592 10.8422 5.38764 11.157C5.66 11.3472 6.64161 11.9544 6.86287 12.1594C7.0918 12.371 7.06216 12.5346 7.03559 12.7426C7.01362 12.9169 6.51949 15.2324 3.42287 16.7295C3.24146 16.8175 2.93282 17.0035 3.47703 17.3041C4.33141 17.7764 4.90015 17.7258 5.34216 18.0105C5.71723 18.2522 5.49546 18.7736 5.76833 18.9617C6.10354 19.1933 7.09435 18.9454 8.37439 19.3681C9.44748 19.7218 10.0995 20.7211 12.0024 20.7211C13.9054 20.7211 14.5763 19.7172 15.6305 19.3681C16.908 18.9454 17.9008 19.1933 18.2366 18.9617C18.5089 18.7736 18.2877 18.2522 18.6627 18.0105C19.1047 17.7258 19.673 17.7764 20.5279 17.3041C21.071 17.0071 20.7624 16.821 20.581 16.7331Z" fill="var(--nys-icon-color, currentcolor)"/>
</g>
</svg>