<svg xmlns="http://www.w3.org/2000/svg" width="24" height="24" viewBox="0 0 24 24" fill="none">
<mask id="mask0_12372_642" style="mask-type:alpha" maskUnits="userSpaceOnUse" x="0" y="0" width="24" height="24">
<rect width="24" height="24" fill="#D9D9D9"/>
</mask>
<g mask="url(#mask0_12372_642)">
<path d="M17.883 6.27729C17.7506 6.20752 17.6217 6.13104 17.4968 6.04813C17.1337 5.80333 16.8007 5.51489 16.5051 5.18901C15.7655 4.32613 15.4893 3.45076 15.3876 2.83787H15.3917C15.3067 2.32915 15.3418 2 15.3471 2H11.9785V15.2818C11.9785 15.4602 11.9785 15.6364 11.9712 15.8106C11.9712 15.8322 11.9691 15.8522 11.9679 15.8756C11.9679 15.8851 11.9679 15.8951 11.9658 15.9051C11.9658 15.9076 11.9658 15.9101 11.9658 15.9126C11.9303 16.3892 11.7805 16.8495 11.5296 17.2532C11.2786 17.6568 10.9342 17.9914 10.5267 18.2275C10.102 18.4739 9.62159 18.6032 9.13293 18.6025C7.56344 18.6025 6.29143 17.2976 6.29143 15.686C6.29143 14.0744 7.56344 12.7695 9.13293 12.7695C9.43002 12.7692 9.72529 12.8169 10.0078 12.9107L10.0119 9.41338C9.15432 9.30043 8.28314 9.36992 7.45327 9.61747C6.62339 9.86502 5.85284 10.2852 5.19021 10.8516C4.6096 11.366 4.12148 11.9798 3.74781 12.6653C3.60561 12.9153 3.0691 13.9198 3.00413 15.5502C2.96327 16.4755 3.23582 17.4342 3.36575 17.8305V17.8388C3.44748 18.0721 3.76415 18.8683 4.28023 19.5395C4.69638 20.078 5.18804 20.5509 5.73939 20.9432V20.9349L5.74756 20.9432C7.37834 22.0732 9.18645 21.999 9.18645 21.999C9.49945 21.9861 10.548 21.999 11.7387 21.4236C13.0593 20.7857 13.8111 19.8354 13.8111 19.8354C14.2915 19.2675 14.6734 18.6204 14.9405 17.9217C15.2454 17.1047 15.3471 16.1247 15.3471 15.7331V8.68675C15.388 8.71175 15.9323 9.07881 15.9323 9.07881C15.9323 9.07881 16.7164 9.59129 17.9398 9.92502C18.8175 10.1625 20 10.2125 20 10.2125V6.80268C19.5857 6.84851 18.7443 6.71518 17.883 6.27729Z" fill="var(--nys-icon-color, currentcolor)"/>
</g>
</svg>