<svg xmlns="http://www.w3.org/2000/svg" width="24" height="24" viewBox="0 0 24 24" fill="none">
<mask id="mask0_8703_408" style="mask-type:alpha" maskUnits="userSpaceOnUse" x="0" y="0" width="24" height="24">
<rect width="24" height="24" fill="#D9D9D9"/>
</mask>
<g mask="url(#mask0_8703_408)">
<path d="M17.6652 3.95118C15.3724 5.71095 12.906 9.27859 12.0004 11.1932C11.0952 9.27859 8.62837 5.71095 6.33557 3.95118C4.68117 2.68168 2.00037 1.69909 2.00037 4.82495C2.00037 5.4489 2.35037 10.0696 2.55597 10.8195C3.26957 13.4274 5.87117 14.0921 8.18517 13.6898C4.14037 14.3937 3.11157 16.724 5.33357 19.0548C9.55397 23.4815 11.3996 17.9442 11.872 16.5255C11.9596 16.2635 12 16.142 12 16.2496C12 16.142 12.0404 16.2635 12.128 16.5255C12.6004 17.9442 14.446 23.4815 18.6664 19.0548C20.8884 16.724 19.86 14.3937 15.8148 13.6898C18.1288 14.0925 20.7304 13.4274 21.444 10.8195C21.6496 10.0692 21.9996 5.4489 21.9996 4.82495C21.9996 1.69909 19.3188 2.68168 17.6644 3.95077L17.6652 3.95118Z" fill="var(--nys-icon-color, currentcolor)"/>
</g>
</svg>