<svg xmlns="http://www.w3.org/2000/svg" width="24" height="24" viewBox="0 0 24 24" fill="none">
<mask id="mask0_14209_599" style="mask-type:alpha" maskUnits="userSpaceOnUse" x="0" y="0" width="24" height="24">
<rect width="24" height="24" fill="#D9D9D9"/>
</mask>
<g mask="url(#mask0_14209_599)">
<path d="M11 6.8249L10.1 7.7249C9.91672 7.90824 9.68755 7.9999 9.41255 7.9999C9.13755 7.9999 8.90005 7.8999 8.70005 7.6999C8.51672 7.51657 8.42505 7.28324 8.42505 6.9999C8.42505 6.71657 8.51672 6.48324 8.70005 6.2999L11.3 3.6999C11.5 3.4999 11.7334 3.3999 12 3.3999C12.2667 3.3999 12.5 3.4999 12.7 3.6999L15.3 6.2999C15.4834 6.48324 15.5792 6.7124 15.5875 6.9874C15.5959 7.2624 15.5 7.4999 15.3 7.6999C15.1167 7.88324 14.8834 7.9749 14.6 7.9749C14.3167 7.9749 14.0834 7.88324 13.9 7.6999L13 6.8249V19.9999C13 20.2832 12.9042 20.5207 12.7125 20.7124C12.5209 20.9041 12.2834 20.9999 12 20.9999C11.7167 20.9999 11.4792 20.9041 11.2875 20.7124C11.0959 20.5207 11 20.2832 11 19.9999V6.8249Z" fill="var(--nys-icon-color, currentcolor)"/>
</g>
</svg>